<?xml version="1.0" encoding="UTF-8"?>
<svg version="1.1" xmlns="http://www.w3.org/2000/svg" width="160" height="160">
<path d="M0 0 C4.18811393 0.67009823 5.50745885 2.22807356 8.125 5.5 C11.50576559 11.61757583 10.37890818 17.1836558 8.625 23.625 C7.02005814 28.65999811 4.82278087 32.91413538 1.9375 37.3125 C-1.33809358 42.1981619 -1.33809358 42.1981619 -2.5625 47.8125 C-2.9342932 52.19965974 -4.3896989 54.33530069 -6.9140625 57.8359375 C-7.38972656 58.65964844 -7.38972656 58.65964844 -7.875 59.5 C-7.545 60.16 -7.215 60.82 -6.875 61.5 C-7.39900391 62.17095703 -7.39900391 62.17095703 -7.93359375 62.85546875 C-8.38863281 63.46003906 -8.84367187 64.06460938 -9.3125 64.6875 C-9.76496094 65.27917969 -10.21742187 65.87085937 -10.68359375 66.48046875 C-12.07289244 68.83544391 -12.3904494 70.81695121 -12.875 73.5 C-17.03601585 85.65635624 -22.46873146 95.13731959 -33.875 101.5 C-30.79754092 100.28534783 -27.81323196 99.02352768 -24.875 97.5 C-26.21453235 101.10643324 -27.81559465 104.25247618 -29.875 107.5 C-30.431875 108.510625 -30.98875 109.52125 -31.5625 110.5625 C-35.25158896 115.24864003 -39.62263799 117.017351 -45.375 118.25 C-46.2 118.3325 -47.025 118.415 -47.875 118.5 C-47.545 120.15 -47.215 121.8 -46.875 123.5 C-48.875 123.5 -48.875 123.5 -51.5 121 C-52.28375 120.175 -53.0675 119.35 -53.875 118.5 C-54.12378906 119.716875 -54.37257813 120.93375 -54.62890625 122.1875 C-56.01242313 128.3981158 -57.89771193 134.43591887 -59.8125 140.5 C-60.33360352 142.21509766 -60.33360352 142.21509766 -60.86523438 143.96484375 C-61.37860352 145.59099609 -61.37860352 145.59099609 -61.90234375 147.25 C-62.20906006 148.23484375 -62.51577637 149.2196875 -62.83178711 150.234375 C-63.17604736 150.98203125 -63.52030762 151.7296875 -63.875 152.5 C-64.865 152.83 -65.855 153.16 -66.875 153.5 C-66.29387961 148.68232447 -65.31671532 144.30073557 -63.80859375 139.69140625 C-63.2043457 137.83032227 -63.2043457 137.83032227 -62.58789062 135.93164062 C-62.1628857 134.64188579 -61.73775394 133.35217275 -61.3125 132.0625 C-60.8829364 130.74561454 -60.45389516 129.42855858 -60.02539062 128.11132812 C-58.98037803 124.90584005 -57.93010089 121.70217873 -56.875 118.5 C-61.33 118.995 -61.33 118.995 -65.875 119.5 C-64.58534824 118.12437146 -63.24810707 116.79233607 -61.875 115.5 C-61.215 115.5 -60.555 115.5 -59.875 115.5 C-59.875 114.84 -59.875 114.18 -59.875 113.5 C-60.865 113.17 -61.855 112.84 -62.875 112.5 C-62.875 111.84 -62.875 111.18 -62.875 110.5 C-60.895 110.5 -58.915 110.5 -56.875 110.5 C-57.15214844 109.89671875 -57.42929687 109.2934375 -57.71484375 108.671875 C-58.07707031 107.87265625 -58.43929687 107.0734375 -58.8125 106.25 C-59.17214844 105.46109375 -59.53179687 104.6721875 -59.90234375 103.859375 C-60.77533279 101.74176302 -61.38838508 99.73330638 -61.875 97.5 C-58 99.375 -58 99.375 -56.875 100.5 C-56.69493408 99.67145508 -56.69493408 99.67145508 -56.51123047 98.82617188 C-50.58060347 71.8900786 -40.09030075 47.94262323 -23.875 25.5 C-23.11445312 24.43523438 -22.35390625 23.37046875 -21.5703125 22.2734375 C-16.7239915 15.64957315 -11.51142314 9.46464858 -5.875 3.5 C-5.35421875 2.92378906 -4.8334375 2.34757813 -4.296875 1.75390625 C-2.875 0.5 -2.875 0.5 0 0 Z M-45.875 96.5 C-44.875 98.5 -44.875 98.5 -44.875 98.5 Z M-48.875 104.5 C-47.875 106.5 -47.875 106.5 -47.875 106.5 Z " fill="#A61C39" transform="translate(106.875,3.5)"/>
<path d="M0 0 C3.87450864 1.01074139 5.39204929 2.64631161 7.875 5.75 C11.25576559 11.86757583 10.12890818 17.4336558 8.375 23.875 C5.59662898 32.37701168 1.04259522 43.12423292 -6.91796875 48.02734375 C-12.1135038 49.72853664 -17.70211118 49.66726522 -23.125 49.75 C-22.60231534 46.98723823 -22.01630413 44.4239124 -21.125 41.75 C-22.445 44.06 -23.765 46.37 -25.125 48.75 C-31.1855042 40.95792317 -31.1855042 40.95792317 -31.015625 37.56640625 C-29.75254577 33.57219519 -27.535753 30.52193343 -25.125 27.125 C-24.3839502 26.06647827 -24.3839502 26.06647827 -23.62792969 24.98657227 C-19.39553824 19.00338609 -14.9549623 13.26733834 -10.125 7.75 C-9.49722656 7.01523438 -8.86945313 6.28046875 -8.22265625 5.5234375 C-5.51733327 2.55172604 -3.96690551 0.95205732 0 0 Z " fill="#D95A29" transform="translate(107.125,3.25)"/>
<path d="M0 0 C0.66 0.33 1.32 0.66 2 1 C1.6173089 6.10254795 -0.1756549 9.18408267 -3.0390625 13.265625 C-3.51472656 14.12414062 -3.51472656 14.12414062 -4 15 C-3.505 15.99 -3.505 15.99 -3 17 C-3.52400391 17.67095703 -3.52400391 17.67095703 -4.05859375 18.35546875 C-4.51363281 18.96003906 -4.96867187 19.56460938 -5.4375 20.1875 C-5.88996094 20.77917969 -6.34242187 21.37085937 -6.80859375 21.98046875 C-8.19789244 24.33544391 -8.5154494 26.31695121 -9 29 C-13.01754788 40.73721633 -18.4884749 51.34313371 -30 57 C-34.03119076 58.4671825 -37.68657052 59 -42 59 C-41.41728566 54.7977705 -40.43756395 51.1589834 -38.85546875 47.2265625 C-38.42556641 46.1540625 -37.99566406 45.0815625 -37.55273438 43.9765625 C-37.10220703 42.87054688 -36.65167969 41.76453125 -36.1875 40.625 C-35.74857422 39.52671875 -35.30964844 38.4284375 -34.85742188 37.296875 C-32.47147879 31.3834232 -29.9007846 25.6759941 -27 20 C-26.28593715 18.30259808 -25.5934135 16.59570814 -24.9375 14.875 C-24.31354656 13.24147382 -23.66642977 11.61666232 -23 10 C-22.42572266 8.38544922 -22.42572266 8.38544922 -21.83984375 6.73828125 C-20 4 -20 4 -16.6015625 3.30078125 C-15.28929688 3.30464844 -13.97703125 3.30851562 -12.625 3.3125 C-7.29825372 3.2967404 -4.43972234 2.93021674 0 0 Z " fill="#B61F3D" transform="translate(103,48)"/>
<path d="M0 0 C0.66 0 1.32 0 2 0 C2.25394531 0.56589844 2.50789063 1.13179688 2.76953125 1.71484375 C3.11371094 2.44832031 3.45789062 3.18179688 3.8125 3.9375 C4.14894531 4.66839844 4.48539063 5.39929688 4.83203125 6.15234375 C5.93600134 8.33029489 5.93600134 8.33029489 9 9 C9 9.99 9 10.98 9 12 C10.95005594 11.76464842 12.89985263 11.52675467 14.84765625 11.2734375 C16.58292845 11.0529855 18.32231677 10.86506972 20.0625 10.6875 C23.91872759 9.78497865 26.63862454 8.08405279 30 6 C28.66046765 9.60643324 27.05940535 12.75247618 25 16 C24.443125 17.010625 23.88625 18.02125 23.3125 19.0625 C19.62341104 23.74864003 15.25236201 25.517351 9.5 26.75 C8.2625 26.87375 8.2625 26.87375 7 27 C7.33 28.65 7.66 30.3 8 32 C6 32 6 32 3.375 29.5 C2.199375 28.2625 2.199375 28.2625 1 27 C0.75121094 28.216875 0.50242187 29.43375 0.24609375 30.6875 C-1.13742313 36.8981158 -3.02271193 42.93591887 -4.9375 49 C-5.28490234 50.14339844 -5.63230469 51.28679687 -5.99023438 52.46484375 C-6.33248047 53.54894531 -6.67472656 54.63304687 -7.02734375 55.75 C-7.33406006 56.73484375 -7.64077637 57.7196875 -7.95678711 58.734375 C-8.47317749 59.85585937 -8.47317749 59.85585937 -9 61 C-10.485 61.495 -10.485 61.495 -12 62 C-11.41887961 57.18232447 -10.44171532 52.80073557 -8.93359375 48.19140625 C-8.3293457 46.33032227 -8.3293457 46.33032227 -7.71289062 44.43164062 C-7.2878857 43.14188579 -6.86275394 41.85217275 -6.4375 40.5625 C-6.0079364 39.24561454 -5.57889516 37.92855858 -5.15039062 36.61132812 C-4.10537803 33.40584005 -3.05510089 30.20217873 -2 27 C-4.97 27.33 -7.94 27.66 -11 28 C-9.71034824 26.62437146 -8.37310707 25.29233607 -7 24 C-6.34 24 -5.68 24 -5 24 C-5 23.34 -5 22.68 -5 22 C-5.99 21.67 -6.98 21.34 -8 21 C-8 20.34 -8 19.68 -8 19 C-6.02 19 -4.04 19 -2 19 C-2.27714844 18.39671875 -2.55429687 17.7934375 -2.83984375 17.171875 C-3.38318359 15.97304687 -3.38318359 15.97304687 -3.9375 14.75 C-4.29714844 13.96109375 -4.65679687 13.1721875 -5.02734375 12.359375 C-5.90033279 10.24176302 -6.51338508 8.23330638 -7 6 C-3.125 7.875 -3.125 7.875 -2 9 C-1.34 6.03 -0.68 3.06 0 0 Z M6 13 C7 15 7 15 7 15 Z " fill="#651D5B" transform="translate(52,95)"/>
<path d="M0 0 C3.60814461 2.87011503 5.82822168 5.52593731 7 10 C7.25 13.6875 7.25 13.6875 7 17 C4.30620056 19.69379944 2.30635575 19.56582348 -1.4375 20.0625 C-4.79126645 20.51591424 -7.78777294 20.92925765 -11 22 C-11 21.34 -11 20.68 -11 20 C-11.66 20 -12.32 20 -13 20 C-16.04684748 14.75942233 -16.04684748 14.75942233 -15.8515625 11.59375 C-14.77656651 8.31945028 -13.23071653 6.63002021 -10.8125 4.1875 C-10.05582031 3.39730469 -9.29914063 2.60710938 -8.51953125 1.79296875 C-5.40152331 -0.42589271 -3.75136169 -0.52059713 0 0 Z " fill="#E58B20" transform="translate(110,4)"/>
<path d="M0 0 C2.15377564 2.62198774 3.40072174 4.64404172 4 8 C4.66 8 5.32 8 6 8 C4.48122047 12.202219 2.40681141 15.82695359 0.0625 19.625 C-0.28490234 20.19734375 -0.63230469 20.7696875 -0.99023438 21.359375 C-2.76963772 24.24127119 -4.56839641 26.65769259 -7 29 C-7.77062024 30.20361088 -8.50148077 31.43374072 -9.1875 32.6875 C-9.785625 33.780625 -10.38375 34.87375 -11 36 C-17.05276014 28.21787982 -17.05276014 28.21787982 -16.90625 24.8359375 C-15.5917798 20.72255231 -13.2381451 17.56084501 -10.75 14.0625 C-10.27175781 13.37220703 -9.79351562 12.68191406 -9.30078125 11.97070312 C-6.38563932 7.80339318 -3.31046053 3.86019029 0 0 Z " fill="#CA5027" transform="translate(93,16)"/>
<path d="M0 0 C0.33 0.66 0.66 1.32 1 2 C-0.03442797 4.09719643 -1.32531754 5.95785596 -2.6171875 7.90625 C-3.76094727 9.63804446 -4.80163686 11.43741782 -5.8125 13.25 C-9.44137001 17.81200801 -13.88535598 19.546862 -19.5 20.75 C-20.7375 20.87375 -20.7375 20.87375 -22 21 C-21.67 22.65 -21.34 24.3 -21 26 C-23 26 -23 26 -24.75 24.5625 C-27.01365614 19.9220049 -24.79194691 15.30349944 -23.1875 10.63671875 C-22.48904233 8.74618189 -21.74851326 6.87128315 -21 5 C-19.83984375 5.06960937 -19.83984375 5.06960937 -18.65625 5.140625 C-11.50696389 5.38837254 -7.09233485 4.79334057 -1 1 C-0.67 0.67 -0.34 0.34 0 0 Z " fill="#76226C" transform="translate(81,101)"/>
<path d="M0 0 C2 3 2 3 1.87866211 4.85742188 C1.70085205 5.55416016 1.52304199 6.25089844 1.33984375 6.96875 C1.13858887 7.76410156 0.93733398 8.55945313 0.72998047 9.37890625 C-0.5877311 14.11032812 -1.96965243 18.81286041 -3.4375 23.5 C-3.73720703 24.5003125 -4.03691406 25.500625 -4.34570312 26.53125 C-4.64283203 27.48 -4.93996094 28.42875 -5.24609375 29.40625 C-5.64332642 30.69499023 -5.64332642 30.69499023 -6.04858398 32.00976562 C-6.36255127 32.66654297 -6.67651855 33.32332031 -7 34 C-8.485 34.495 -8.485 34.495 -10 35 C-9.41887961 30.18232447 -8.44171532 25.80073557 -6.93359375 21.19140625 C-6.3293457 19.33032227 -6.3293457 19.33032227 -5.71289062 17.43164062 C-5.2878857 16.14188579 -4.86275394 14.85217275 -4.4375 13.5625 C-4.0079364 12.24561454 -3.57889516 10.92855858 -3.15039062 9.61132812 C-2.10537803 6.40584005 -1.05510089 3.20217873 0 0 Z " fill="#3F1B56" transform="translate(50,122)"/>
<path d="M0 0 C2 3 2 3 1.7578125 5.48046875 C1.54898438 6.37378906 1.34015625 7.26710937 1.125 8.1875 C0.92132813 9.08855469 0.71765625 9.98960937 0.5078125 10.91796875 C0.25644531 11.94857422 0.25644531 11.94857422 0 13 C-0.99 13.33 -1.98 13.66 -3 14 C-2.40380045 9.13103697 -1.43023178 4.67209049 0 0 Z " fill="#171539" transform="translate(43,143)"/>
<path d="M0 0 C2.64 0 5.28 0 8 0 C8 0.33 8 0.66 8 1 C6.02 1.33 4.04 1.66 2 2 C2.33 3.65 2.66 5.3 3 7 C2.34 7 1.68 7 1 7 C-0.625 4.5 -0.625 4.5 -2 2 C-1.34 2 -0.68 2 0 2 C0 1.34 0 0.68 0 0 Z " fill="#37123B" transform="translate(57,120)"/>
<path d="M0 0 C2.31 0 4.62 0 7 0 C7 1.32 7 2.64 7 4 C5.02 4 3.04 4 1 4 C0.67 2.68 0.34 1.36 0 0 Z " fill="#313233" transform="translate(120,18)"/>
<path d="M0 0 C0.66 0.66 1.32 1.32 2 2 C0.68 3.32 -0.64 4.64 -2 6 C-2 5.34 -2 4.68 -2 4 C-2.99 3.67 -3.98 3.34 -5 3 C-3.35 2.01 -1.7 1.02 0 0 Z " fill="#350E2D" transform="translate(75,110)"/>
</svg>
